# xmcd CD database file
#
# Track frame offsets:
#	150
#	28350
#	44400
#	63525
#	89175
#	125850
#	151313
#	182513
#	203775
#	233775
#
# Disc length: 3456 seconds
#
# Revision: 0
# Processed by: cddbd v1.5.2PL0 Copyright (c) Steve Scherf et al.
# Submitted via: CDex 1.51
#
DISCID=930d7e0a
DTITLE=La Perfekta - Perfekta Son 20 ana Live
DYEAR=1900
DGENRE=Salsa
TTITLE0=Cubana Guajira
TTITLE1=Yo te obedezco
TTITLE2=El rocio
TTITLE3=I started a joke
TTITLE4=Tengo derecho a ser feliz
TTITLE5=Canta sonero tu son
TTITLE6=Tell me
TTITLE7=Te busco
TTITLE8=Tuma mi konseho
TTITLE9=Hala band'i mi
EXTD=
EXTT0=
EXTT1=
EXTT2=
EXTT3=
EXTT4=
EXTT5=
EXTT6=
EXTT7=
EXTT8=
EXTT9=
PLAYORDER=
